<?xml version="1.0" standalone="no"?>
<!DOCTYPE svg PUBLIC "-//W3C//DTD SVG 20010904//EN"
 "http://www.w3.org/TR/2001/REC-SVG-20010904/DTD/svg10.dtd">
<svg version="1.0" xmlns="http://www.w3.org/2000/svg"
 width="512.000000pt" height="512.000000pt" viewBox="0 0 512.000000 512.000000"
 preserveAspectRatio="xMidYMid meet">
<metadata>
Created by potrace 1.14, written by Peter Selinger 2001-2017
</metadata>
<g transform="translate(0.000000,512.000000) scale(0.100000,-0.100000)"
fill="#000000" stroke="none">
<path d="M2854 4417 c-27 -4 -57 -8 -66 -9 -10 -1 -18 -3 -18 -4 0 -4 35 -82
74 -169 50 -110 52 -114 66 -165 20 -68 22 -253 4 -335 -49 -231 -179 -406
-394 -530 -8 -5 19 25 61 67 219 217 296 508 208 783 -7 22 -13 42 -14 45 -2
15 -53 112 -82 155 -59 91 -77 107 -109 102 -73 -13 -136 -27 -145 -32 -5 -3
7 -20 26 -36 46 -41 117 -151 144 -222 75 -205 31 -434 -127 -657 -49 -68
-203 -228 -311 -320 -35 -30 -73 -64 -85 -75 -12 -11 -58 -51 -101 -90 -44
-38 -102 -90 -129 -115 -65 -58 -62 -55 -139 -124 l-67 -58 0 -494 c0 -272 3
-494 8 -494 4 0 365 359 803 798 869 870 954 965 1032 1142 59 133 82 337 50
443 -78 266 -385 442 -689 394z"/>
<path d="M1923 4215 c-98 -21 -168 -65 -241 -149 l-33 -38 3 -553 3 -554 25
22 c14 13 50 45 80 72 56 51 170 151 270 238 209 184 323 325 376 467 22 58
26 186 9 242 -67 214 -246 306 -492 253z"/>
<path d="M3277 2910 l-57 -59 2 -103 c5 -198 -19 -287 -117 -433 -91 -138
-255 -284 -402 -359 -58 -29 -45 -17 44 43 250 167 373 382 370 642 0 55 -2
99 -5 99 -2 0 -332 -328 -733 -729 l-729 -730 5 -287 c3 -158 7 -289 9 -292 4
-3 263 189 411 305 41 32 37 29 155 117 58 44 107 82 110 86 3 3 79 60 170
125 91 66 188 136 215 157 28 21 63 49 80 61 87 64 329 263 390 318 162 149
230 235 298 379 125 261 89 490 -105 683 -21 20 -41 37 -46 37 -4 -1 -33 -27
-65 -60z m-632 -980 c-3 -5 -12 -10 -18 -10 -7 0 -6 4 3 10 19 12 23 12 15 0z"/>
</g>
</svg>
